# xmcd
#
# Track frame offsets: 
#        150
#        15195
#        32862
#        46477
#        66417
#        82045
#        97020
#        112337
#        133627
#        147080
#        161325
#        178892
#
# Disc length: 2550 seconds
#
# Revision: 1
# Processed by: cddbd v1.4PL0 Copyright (c) Steve Scherf et al.
# Submitted via: ExactAudioCopy v0.90b3
#
DISCID=a809f40c
DTITLE=Alabama - Down Home (36 All-Time Favorites) - Disc 2
DYEAR=1900
DGENRE=Country
TTITLE0=Down Home
TTITLE1=True True Housewife
TTITLE2=Lovin' You Is Killin' Me
TTITLE3=Carolina Mountain Dew
TTITLE4=Fallin' Again
TTITLE5=Love In The First Degree
TTITLE6=Feels So Right
TTITLE7=Very Special Love
TTITLE8=Green River
TTITLE9=Why Lady Why
TTITLE10=Words At Twenty Paces
TTITLE11=Never Be One
EXTD=My Name Is Derek Grim! The Album Is A 3 Disc Compilation
EXTT0=
EXTT1=
EXTT2=
EXTT3=
EXTT4=
EXTT5=
EXTT6=
EXTT7=
EXTT8=
EXTT9=
EXTT10=
EXTT11=
PLAYORDER=
